Coordinates
version=1
nRows=11
nColumns=40
inDegrees=yes

Units are S.I. units (second, meters, Newtons, ...)
Angles are in degrees.

endheader
time	pelvis_tilt	pelvis_list	pelvis_rotation	pelvis_tx	pelvis_ty	pelvis_tz	hip_flexion_r	hip_adduction_r	hip_rotation_r	knee_angle_r	knee_angle_r_beta	ankle_angle_r	subtalar_angle_r	mtp_angle_r	hip_flexion_l	hip_adduction_l	hip_rotation_l	knee_angle_l	knee_angle_l_beta	ankle_angle_l	subtalar_angle_l	mtp_angle_l	lumbar_extension	lumbar_bending	lumbar_rotation	arm_flex_r	arm_add_r	arm_rot_r	elbow_flex_r	pro_sup_r	wrist_flex_r	wrist_dev_r	arm_flex_l	arm_add_l	arm_rot_l	elbow_flex_l	pro_sup_l	wrist_flex_l	wrist_dev_l
     40.23000000	     -2.53609178	     -4.46331109	      1.55784185	      1.06314115	      0.93280596	      0.38943640	     28.65428397	     -6.59130704	     -3.86561287	     61.41054781	     61.41054781	      1.53724032	    -10.38795178	     -0.98214251	     15.17759143	     -5.93154898	     -7.15590523	     22.56263144	     22.56263144	     11.61701191	    -11.33734605	     -2.67336168	    -10.41737825	      3.36790454	      2.26268549	      8.28967234	    -12.87195861	     -1.92637402	     32.39446678	     45.83484231	      0.00000000	      0.00000000	     16.95541527	    -15.56354419	     -6.52355762	     46.72761720	     45.66144010	      0.00000000	      0.00000000
     40.24321429	     -2.53038821	     -4.53635140	      0.99752313	      1.06270312	      0.93356637	      0.38965025	     29.13865072	     -6.43309479	     -3.70208571	     59.16760891	     59.16760891	      1.64476944	    -10.30988646	     -0.99410363	     14.41269882	     -6.06371832	     -7.61084480	     22.01892436	     22.01892436	     11.77868572	    -11.29260211	     -2.70215179	    -10.54262541	      3.48762550	      2.49595296	      6.95307197	    -13.51812949	     -2.10838815	     31.47390646	     45.87787004	      0.00000000	      0.00000000	     17.65363551	    -15.91447539	     -6.88034219	     48.10372690	     45.72857135	      0.00000000	      0.00000000
     40.25642857	     -2.57070938	     -4.59233823	      0.47375389	      1.06224630	      0.93419541	      0.38982160	     29.52289203	     -6.31147302	     -3.65080823	     56.67187401	     56.67187401	      1.74241557	    -10.07524570	     -1.00602763	     13.72985760	     -6.15218460	     -8.03431291	     21.51446271	     21.51446271	     11.89691546	    -11.32428425	     -2.70147878	    -10.61492320	      3.62601946	      2.62427950	      5.64025447	    -14.12965411	     -2.35402268	     30.65373127	     45.92101197	      0.00000000	      0.00000000	     18.18278065	    -16.31571996	     -7.26285949	     49.71162773	     45.79601033	      0.00000000	      0.00000000
     40.26964286	     -2.60570960	     -4.64920363	     -0.04790712	      1.06176806	      0.93470787	      0.39004158	     29.77179671	     -6.16741257	     -3.62618252	     53.93276755	     53.93276755	      1.81349304	     -9.70620132	     -0.99921822	     13.06310055	     -6.23792508	     -8.47086201	     21.03697167	     21.03697167	     12.01925788	    -11.38663212	     -2.72481524	    -10.73508345	      3.72240566	      2.77795499	      4.34739340	    -14.72579475	     -2.67927663	     29.84959443	     45.96973268	      0.00000000	      0.00000000	     18.62747661	    -16.76467570	     -7.71688040	     51.67284312	     45.87284329	      0.00000000	      0.00000000
     40.28285714	     -2.70666133	     -4.63285110	     -0.58928807	      1.06122976	      0.93484753	      0.39052111	     30.00274745	     -6.02116930	     -3.51618067	     50.96874544	     50.96874544	      1.60034748	     -9.30004363	     -1.88947924	     12.53088684	     -6.27124837	     -8.88222557	     20.66195172	     20.66195172	     12.03513617	    -11.44880410	     -3.16697852	    -10.86940789	      3.65994133	      2.32609039	      3.61409641	    -14.93586040	     -4.13315431	     28.92375652	     46.11711016	      0.00000000	      0.00000000	     17.53349119	    -17.65392542	     -9.02029131	     56.83171331	     46.08307687	      0.00000000	      0.00000000
     40.29607143	     -2.77667874	     -4.74298342	     -1.03024953	      1.06068182	      0.93511512	      0.39100427	     29.99356107	     -5.79235501	     -3.68666944	     47.65085841	     47.65085841	      1.69042379	     -8.45632664	     -1.69901327	     11.99656243	     -6.41900572	     -9.23620929	     20.30973043	     20.30973043	     12.19115613	    -11.54667997	     -3.17236666	    -10.92586619	      3.79815439	      2.28851458	      2.53231797	    -15.46424581	     -4.41327519	     28.22759857	     46.16049483	      0.00000000	      0.00000000	     18.11418211	    -18.10231875	     -9.45515248	     57.99662762	     46.14940631	      0.00000000	      0.00000000
     40.30928571	     -2.90716110	     -4.69257820	     -1.49713326	      1.06010173	      0.93500979	      0.39166780	     29.99497311	     -5.67980819	     -3.78653659	     44.16956366	     44.16956366	      1.82904540	     -7.29453900	     -2.03847556	     11.54488287	     -6.41776438	     -9.65553679	     19.99152666	     19.99152666	     12.31501878	    -11.50541332	     -3.34287869	    -11.00080176	      3.74698398	      2.45519816	      1.41834930	    -15.82609335	     -5.18383417	     27.55993126	     46.24178539	      0.00000000	      0.00000000	     18.27076257	    -18.47633840	    -10.29452156	     60.83952505	     46.28161306	      0.00000000	      0.00000000
     40.32250000	     -3.09757462	     -4.74940061	     -1.89559024	      1.05951915	      0.93477835	      0.39249752	     29.84912338	     -5.45865247	     -4.13217331	     40.29518015	     40.29518015	      1.84444057	     -5.83276869	     -2.42545520	     11.23008833	     -6.54463771	     -9.98305823	     19.77583687	     19.77583687	     12.45554185	    -11.51255756	     -3.52366776	    -10.99377923	      3.80024774	      2.28431138	      0.51737840	    -16.12203662	     -6.03065654	     27.22241779	     46.31635985	      0.00000000	      0.00000000	     18.21774324	    -19.00316474	    -11.11603559	     63.28141273	     46.40713344	      0.00000000	      0.00000000
     40.33571429	     -3.34208289	     -4.82780970	     -2.25899254	      1.05893727	      0.93440084	      0.39348918	     29.61248653	     -5.13923325	     -4.51030849	     36.14668180	     36.14668180	      1.89360105	     -4.20200071	     -2.26872329	     11.02539064	     -6.70047730	    -10.23289416	     19.64602196	     19.64602196	     12.64420797	    -11.60026247	     -3.63887644	    -10.89238150	      3.92957216	      2.21324748	     -0.41633490	    -16.46765146	     -6.39860048	     26.92004760	     46.35052238	      0.00000000	      0.00000000	     18.56619068	    -19.46874755	    -11.56384190	     64.60049202	     46.47464200	      0.00000000	      0.00000000
     40.34892857	     -3.60395829	     -4.77251956	     -2.64393353	      1.05850077	      0.93383505	      0.39465702	     29.26053716	     -4.97536281	     -5.14746317	     31.78051041	     31.78051041	      1.63745970	     -1.97853170	     -3.08813639	     10.78900032	     -6.73652059	    -10.61497642	     19.44546419	     19.44546419	     12.78812771	    -11.53402869	     -3.89826290	    -10.84038749	      3.83574442	      2.00849017	     -1.35362403	    -16.55950125	     -7.64645412	     27.17181125	     46.42780779	      0.00000000	      0.00000000	     18.11871522	    -19.94213621	    -12.66165740	     67.85463805	     46.64442727	      0.00000000	      0.00000000
     40.36214286	     -3.85105128	     -4.73897853	     -2.96217270	      1.05819496	      0.93327486	      0.39594506	     28.72044733	     -4.71385462	     -5.87922733	     27.24449820	     27.24449820	      1.46927861	      0.49528222	     -2.89631612	     10.54259455	     -6.78981916	    -10.90369032	     19.25774252	     19.25774252	     12.95657447	    -11.50893738	     -4.07932812	    -10.73484165	      3.79387338	      2.03800717	     -2.27882613	    -16.68487156	     -8.27706428	     27.06330052	     46.47104132	      0.00000000	      0.00000000	     18.36427910	    -20.23389357	    -13.25078010	     69.52525773	     46.74522505	      0.00000000	      0.00000000
